<svg xmlns="http://www.w3.org/2000/svg" data-name="Shopping Cart" viewBox="0 0 51.14 59.787499999999994" x="0px" y="0px"><title>shopping-cart-5</title><path d="M373.48,44.17H342.22a3.11,3.11,0,0,1-3-2.28l-7.95-29.81h-4.88v-4H332a3.11,3.11,0,0,1,3,2.28l7.95,29.81h30.55v4Zm-30.13,2.44a4.47,4.47,0,1,0,4.47,4.47A4.47,4.47,0,0,0,343.35,46.61Zm30.51,4.84A4.47,4.47,0,1,1,369.39,47,4.47,4.47,0,0,1,373.86,51.45ZM339.6,14.33l5.88,22a1.06,1.06,0,0,0,1,.74h26.2a1,1,0,0,0,1-.82l3.92-22a1,1,0,0,0-1-1.18h-36A1,1,0,0,0,339.6,14.33Z" transform="translate(-326.43 -8.09)"/></svg>