<?xml version="1.0" encoding="utf-8"?>
<!-- Generator: Adobe Illustrator 22.1.0, SVG Export Plug-In . SVG Version: 6.00 Build 0)  -->
<svg version="1.1" id="Ebene_1" xmlns="http://www.w3.org/2000/svg" xmlns:xlink="http://www.w3.org/1999/xlink" x="0px" y="0px"
	 viewBox="0 0 384.8 63" style="enable-background:new 0 0 384.8 63;" xml:space="preserve">
<style type="text/css">
	.st0{fill:#FFFFFF;}
	.st1{fill:none;stroke:#F2CBA2;stroke-width:1.697;stroke-linecap:round;stroke-linejoin:round;stroke-miterlimit:10;}
	.st2{fill:none;stroke:#D70B31;stroke-width:1.6965;stroke-linecap:round;stroke-linejoin:round;stroke-miterlimit:10;}
	.st3{fill:none;stroke:#8C8419;stroke-width:1.697;stroke-linecap:round;stroke-linejoin:round;stroke-miterlimit:10;}
</style>
<path class="st0" d="M182.8,22.7c0,0.3,0,0.8-0.1,1.1c-0.2,0.9-0.8,1.3-1.8,1.3h-6.8c-0.9,0-1.6-0.6-1.6-1.7v-16l0.2-0.2h1
	c1.1,0,1.6,0.5,1.6,1.8v13.8c0.8-0.1,1.6-0.1,2.3-0.1H182.8z"/>
<path class="st0" d="M185.2,15.1c0-0.9-0.1-1.7-0.4-2.3c0.4-0.3,1-0.6,1.7-0.6c1,0,1.4,0.6,1.4,1.7v6.6c0,1.7,0.3,2.5,1.6,2.5
	c1,0,2.3-0.6,3.2-1.6v-9.1c0.4-0.1,0.9-0.1,1.3-0.1c0.5,0,1,0.1,1.3,0.1v9.2c0,1,0.2,1.9,0.7,2.5c-0.2,0.5-0.6,1.1-1,1.3
	c-1.1-0.2-1.8-0.9-2.2-1.9c-1.1,1.1-2.7,1.9-4.3,1.9c-2.4,0-3.4-1.9-3.4-4.3V15.1z"/>
<path class="st0" d="M202.9,16.9c0.6-0.8,1.4-1.7,2-2.5l-0.1-0.1c-0.7,0.1-2.4,0.2-3.4,0.2h-2.7c-0.1-0.3-0.1-0.6-0.1-0.9
	c0-0.3,0.1-0.8,0.2-1.2h8.7c0.3,0.8,0.4,1.2,0.4,1.6c0,0.3-0.1,0.6-0.3,0.9l-4.2,5.7c-0.6,0.8-1.4,1.8-2,2.5l0.1,0.1
	c0.8-0.1,1.8-0.1,2.4-0.1h1.2c1.2,0,2.2-0.1,2.8-0.4c0.2,0.4,0.3,0.8,0.3,1.2c0,0.8-0.4,1.3-1.7,1.3h-7.7c-0.3-0.8-0.4-1.1-0.4-1.5
	c0-0.3,0.1-0.6,0.4-1L202.9,16.9z"/>
<path class="st0" d="M212.4,19.6c0.1,2.2,0.8,3.7,3,3.7c1.3,0,2.5-0.4,3.6-1c0.4,0.4,0.8,1.2,0.9,1.7c-1.2,0.9-3.1,1.5-4.9,1.5
	c-4.1,0-5.3-3.2-5.3-6.7c0-3.9,1.8-6.8,5.4-6.8c3.3,0,5.1,2.5,5.1,5.6c0,0.8-0.1,1.3-0.2,2H212.4z M212.4,17.6h5.2v-0.3
	c0-1.8-0.7-3.3-2.6-3.3C213.4,14,212.5,15.3,212.4,17.6z"/>
<path class="st0" d="M223.3,12.1c1.2,0.3,2,1.1,2.4,2.3c0.6-1.3,1.7-2.3,3.4-2.3c0.5,0,0.9,0.1,1.4,0.2c0,0.7-0.2,1.8-0.6,2.5
	c-0.3-0.1-0.7-0.1-1.1-0.1c-1.4,0-2.2,0.9-2.8,2v8.5c-0.4,0.1-0.9,0.1-1.3,0.1c-0.5,0-1,0-1.3-0.1v-8.9c0-1.4-0.5-2.3-1-2.7
	C222.5,13.1,222.9,12.4,223.3,12.1z"/>
<path class="st0" d="M242.8,22.4c0,0.9,0.1,1.7,0.4,2.4c-0.4,0.3-1,0.6-1.7,0.6c-1.1,0-1.4-0.6-1.4-1.7V17c0-1.7-0.4-2.5-1.6-2.5
	c-1,0-2.4,0.6-3.3,1.6v9c-0.4,0.1-0.9,0.1-1.3,0.1c-0.5,0-1,0-1.3-0.1V12.4l0.2-0.2h1c1,0,1.4,0.6,1.5,1.6c1.1-1,2.6-1.7,4.1-1.7
	c2.4,0,3.4,1.9,3.4,4.3V22.4z"/>
<path class="st0" d="M248.3,19.6c0.1,2.2,0.8,3.7,3,3.7c1.3,0,2.5-0.4,3.6-1c0.4,0.4,0.8,1.2,0.9,1.7c-1.2,0.9-3.1,1.5-4.9,1.5
	c-4.1,0-5.3-3.2-5.3-6.7c0-3.9,1.8-6.8,5.4-6.8c3.3,0,5.1,2.5,5.1,5.6c0,0.8-0.1,1.3-0.2,2H248.3z M248.3,17.6h5.2v-0.3
	c0-1.8-0.7-3.3-2.6-3.3C249.3,14,248.4,15.3,248.3,17.6z"/>
<path class="st0" d="M259.2,12.1c1.2,0.3,2,1.1,2.4,2.3c0.6-1.3,1.7-2.3,3.4-2.3c0.5,0,0.9,0.1,1.4,0.2c0,0.7-0.2,1.8-0.6,2.5
	c-0.3-0.1-0.7-0.1-1.1-0.1c-1.4,0-2.2,0.9-2.8,2v8.5c-0.4,0.1-0.9,0.1-1.3,0.1c-0.5,0-1,0-1.3-0.1v-8.9c0-1.4-0.5-2.3-1-2.7
	C258.3,13.1,258.7,12.4,259.2,12.1z"/>
<path class="st0" d="M170.4,45.7c1,0.4,1.6,1.3,2,2.4l0.8,2.2c0.3,0.8,0.7,1.5,1.3,1.9c-0.5,0.7-1.7,1.2-2.8,1.2
	c-1.5,0-2-0.8-2.5-2.4l-0.9-2.7c-0.3-0.9-0.8-1.6-2.2-1.6h-1.1v6.5c-0.7,0.1-1.5,0.2-2.1,0.2c-0.5,0-1.4,0-2-0.2V35.6l0.2-0.2
	c2.2-0.1,4.3-0.1,6.2-0.1c3.6,0,6.3,1.7,6.3,5.6C173.5,43.5,171.8,45.2,170.4,45.7z M164.9,43.5c0.8,0,1.6-0.1,1.9-0.1
	c2,0,2.4-1.2,2.4-2.5c0-1.3-0.5-2.5-2.4-2.5c-0.5,0-1.2,0-1.9,0V43.5z"/>
<path class="st0" d="M185.4,52.1c-1.1,1.1-2.5,1.5-4.1,1.5c-1.6,0-3.1-0.5-4.1-1.5c-1.4-1.4-1.9-3.1-1.9-5.3c0-2.3,0.5-3.9,1.9-5.3
	c1.1-1.1,2.5-1.5,4.1-1.5c1.6,0,3,0.5,4.1,1.5c1.4,1.4,1.9,3.1,1.9,5.3C187.2,49,186.7,50.7,185.4,52.1z M181.2,50.6
	c1.6,0,1.8-1.7,1.8-3.8c0-2.1-0.2-3.8-1.8-3.8c-1.6,0-1.8,1.7-1.8,3.8C179.4,48.9,179.6,50.6,181.2,50.6z"/>
<path class="st0" d="M195.1,50.3c0.2,0.6,0.3,1.3,0.3,1.9c0,0.3,0,0.6-0.1,0.9c-0.8,0.1-1.8,0.3-2.8,0.3c-2.3,0-3.2-1.1-3.2-3.6
	V34.3l0.2-0.2h1.6c1.6,0,2.2,0.6,2.2,2.4V49c0,0.8,0.3,1.2,1.1,1.2H195.1z"/>
<path class="st0" d="M202.8,50.3c0.2,0.6,0.3,1.3,0.3,1.9c0,0.3,0,0.6-0.1,0.9c-0.8,0.1-1.8,0.3-2.8,0.3c-2.3,0-3.2-1.1-3.2-3.6
	V34.3l0.2-0.2h1.6c1.6,0,2.2,0.6,2.2,2.4V49c0,0.8,0.3,1.2,1.1,1.2H202.8z"/>
<path class="st0" d="M208.2,48.1c0.1,1.4,0.6,2.5,2.3,2.5c1.2,0,2.3-0.4,3.4-0.8c0.6,0.6,1,1.6,1.1,2.4c-1.3,0.9-3.3,1.5-5.1,1.5
	c-4.6,0-5.8-3.3-5.8-6.8c0-3.9,1.7-7,5.8-7c3.4,0,5.4,2.4,5.4,5.5c0,1.1-0.1,1.8-0.3,2.7H208.2z M208.1,45.3h3.4V45
	c0-1.2-0.5-2.2-1.7-2.2C208.7,42.8,208.2,43.6,208.1,45.3z"/>
<path class="st0" d="M228.6,50c0,1,0.2,1.9,0.6,2.6c-0.6,0.5-1.5,0.9-2.5,0.9c-1.6,0-2.2-0.9-2.2-2.5v-5.5c0-1.2-0.2-1.7-1.1-1.7
	c-0.5,0-1.2,0.3-1.9,0.9v8.7c-0.6,0.1-1.3,0.2-2,0.2c-0.7,0-1.5-0.1-2-0.2V40.3l0.2-0.2h1.5c1.1,0,1.8,0.6,2.1,1.6
	c1-0.9,2.2-1.6,3.7-1.6c2.4,0,3.6,1.9,3.6,4.6V50z"/>
<path class="st0" d="M231.7,49.6c1.1,0.6,2.6,1.1,3.6,1.1c1,0,1.5-0.4,1.5-0.9c0-0.5-0.3-0.9-1.2-1.2l-1.4-0.5
	c-1.8-0.7-3.2-1.8-3.2-3.9c0-2.6,2-4.3,5-4.3c1.6,0,3.6,0.5,4.8,1.1c0.1,1-0.5,2.3-1.1,2.8c-1.1-0.5-2.4-1-3.6-1
	c-0.7,0-1.1,0.4-1.1,0.8c0,0.4,0.3,0.7,1,1l1.6,0.6c2,0.7,3.5,2,3.5,4.2c0,2.6-2.1,4.2-5.2,4.2c-2,0-4-0.6-5.2-1.3
	C230.6,51.5,231.1,50.2,231.7,49.6z"/>
<path class="st0" d="M249.4,53.5c-0.9,0-1.7-0.2-2.4-0.5v3.5c0,1.8-0.6,2.4-2.2,2.4h-1.6l-0.2-0.2V40.3l0.2-0.2h1.1
	c1,0,1.7,0.5,2.2,1.3c0.9-0.9,2.1-1.5,3.4-1.5c3.2,0,4.7,2.8,4.7,6.7C254.6,51,252.2,53.5,249.4,53.5z M247,44.2v5.7
	c0.6,0.4,1.2,0.6,1.7,0.6c1.2,0,1.8-1.5,1.8-3.9c0-2.4-0.6-3.4-1.6-3.4C248.4,43.1,247.6,43.3,247,44.2z"/>
<path class="st0" d="M261.5,53.2c-0.6,0.1-1.3,0.2-2,0.2c-0.7,0-1.4-0.1-2-0.2v-8.6c0-0.9-0.3-1.5-1.2-1.5h-0.4
	c-0.1-0.4-0.2-0.9-0.2-1.4c0-0.4,0-1,0.2-1.5c0.8-0.1,1.7-0.1,2.3-0.1h0.6c1.7,0,2.8,1.2,2.8,3.1V53.2z M256.9,35.1
	c0.4-0.2,1.2-0.4,1.9-0.4s1.5,0.2,1.9,0.4c0.2,0.5,0.3,1,0.3,1.5s-0.1,1-0.3,1.5c-0.4,0.2-1.2,0.4-1.9,0.4s-1.5-0.2-1.9-0.4
	c-0.2-0.5-0.3-1-0.3-1.5C256.6,36.1,256.7,35.5,256.9,35.1z"/>
<path class="st0" d="M267.6,48.1c0.1,1.4,0.6,2.5,2.3,2.5c1.2,0,2.3-0.4,3.4-0.8c0.6,0.6,1,1.6,1.1,2.4c-1.3,0.9-3.3,1.5-5.1,1.5
	c-4.6,0-5.8-3.3-5.8-6.8c0-3.9,1.7-7,5.8-7c3.4,0,5.4,2.4,5.4,5.5c0,1.1-0.1,1.8-0.3,2.7H267.6z M267.6,45.3h3.4V45
	c0-1.2-0.5-2.2-1.7-2.2C268.2,42.8,267.7,43.6,267.6,45.3z"/>
<path class="st0" d="M282.7,50.3c0.2,0.6,0.3,1.3,0.3,1.9c0,0.3,0,0.6-0.1,0.9c-0.8,0.1-1.8,0.3-2.8,0.3c-2.3,0-3.2-1.1-3.2-3.6
	V34.3l0.2-0.2h1.6c1.6,0,2.2,0.6,2.2,2.4V49c0,0.8,0.3,1.2,1.1,1.2H282.7z"/>
<path class="st0" d="M292.3,41.7c0,0.5-0.1,1-0.2,1.5l-3.1-0.1v6c0,0.8,0.3,1.2,1.1,1.2h1.5c0.2,0.6,0.3,1.3,0.3,1.9
	c0,0.3,0,0.6-0.1,0.9c-1,0.1-2.3,0.3-3.3,0.3c-2.4,0-3.5-1.1-3.5-3.6v-6.6l-2,0c-0.1-0.5-0.2-1-0.2-1.5c0-0.4,0.1-0.9,0.2-1.4l2,0.1
	v-1.5c0-1.8,0.6-2.4,2.2-2.4h1.6l0.2,0.2v3.8l3.1-0.1C292.3,40.7,292.3,41.2,292.3,41.7z"/>
<path class="st0" d="M303.9,53.4c-1.3,0-2.2-0.6-2.8-1.4c-0.9,0.9-2.1,1.6-3.8,1.6c-2.7,0-3.9-2.1-3.9-3.9c0-3.1,2.5-4.5,5.1-4.5
	c0.5,0,1.2,0,1.8,0.1v-0.5c0-1.1-0.5-1.6-1.7-1.6c-1.1,0-2.5,0.4-3.8,0.8c-0.6-0.7-0.9-1.8-1-2.8c1.7-0.7,4.3-1.1,5.9-1.1
	c2.3,0,4.6,1.1,4.6,4.4v5.3c0,0.8,0.2,1.3,0.7,1.7C305,52.1,304.4,53,303.9,53.4z M300.3,49.9v-2.1c-0.5,0-1-0.1-1.4-0.1
	c-1.2,0-1.6,0.7-1.6,1.7c0,0.7,0.5,1.2,1.2,1.2C299.1,50.6,299.8,50.4,300.3,49.9z"/>
<path class="st0" d="M311.6,39.9c1.5,0,2.6,0.5,3.4,1.2c0.6-0.6,1.4-1,2.4-1c0.5,0.4,1.1,1.3,1.2,2.1c-0.4,0.3-0.7,1-0.7,1.9v6.8
	c0,3.6-0.5,5.2-1.3,6.2c-1,1.3-2.8,1.9-4.9,1.9c-1.6,0-3.5-0.3-4.9-0.9c0-1,0.4-2.3,1-2.9c1.1,0.5,2.4,0.8,3.5,0.8
	c1.9,0,2.6-1,2.6-2.6v-0.9c-0.9,0.6-1.9,1-3,1c-3.2,0-4.7-2.8-4.7-6.7C306.4,42.3,308.8,39.9,311.6,39.9z M314.1,43.8
	c-0.6-0.6-1.2-0.9-1.7-0.9c-1.3,0-1.8,1.5-1.8,3.9c0,2.4,0.6,3.4,1.5,3.4c0.7,0,1.3-0.3,1.9-0.9V44V43.8z"/>
<path class="st0" d="M337.8,51.3c-0.2,1.3-1.1,1.9-2.5,1.9h-7.7c-0.5-0.5-1.4-1.6-1.4-2.5c0-1.6,1.3-3.2,3-4.6l2.8-2.5
	c0.8-0.7,1.4-1.5,1.4-2.5c0-1-0.7-1.8-1.8-1.8c-1.2,0-2,1.2-2.3,2.3c-1,0-2.4-0.4-2.9-1.2C327,38,329,36,332,36
	c3.3,0,5.5,2.1,5.5,5.2c0,2.2-1.4,3.7-3.1,5.2l-1.9,1.6c-0.7,0.6-1.7,1.5-2.1,2.1c1.4-0.2,2.9-0.3,3.9-0.3h3.6
	C337.9,50.2,337.8,50.9,337.8,51.3z"/>
<path class="st0" d="M341.3,37.7c1-1,2.2-1.7,4.3-1.7c2.1,0,3.3,0.7,4.3,1.7c1.6,1.8,1.8,4.3,1.8,7.1c0,2.8-0.2,5.3-1.8,7.1
	c-1,1-2.1,1.7-4.3,1.7c-2.1,0-3.3-0.7-4.3-1.7c-1.6-1.8-1.8-4.3-1.8-7.1C339.5,42,339.7,39.5,341.3,37.7z M344.1,49.5
	c0.3,0.7,0.9,1,1.5,1c0.6,0,1.2-0.3,1.5-1c0.3-0.8,0.5-2.3,0.5-4.7c0-2.4-0.2-4-0.5-4.7c-0.3-0.7-0.8-1-1.5-1c-0.6,0-1.2,0.3-1.5,1
	c-0.3,0.8-0.5,2.3-0.5,4.7C343.6,47.2,343.8,48.8,344.1,49.5z"/>
<path class="st0" d="M358.3,36.4c0.7-0.1,1.3-0.2,1.9-0.2c0.6,0,1.2,0,1.9,0.2V48c0,0.6,0,1.3,0,1.9c0.4,0,1.4,0,1.8,0h1.4
	c0.1,0.5,0.2,1.1,0.2,1.7s-0.1,1.2-0.2,1.7h-10.8c-0.1-0.5-0.2-1.1-0.2-1.7s0.1-1.2,0.2-1.7h2.1c0.4,0,1.2,0,1.7,0
	c0-0.6,0-1.3,0-1.9v-3.4c0-0.7,0.1-1.9,0.2-3c-1,1.1-2.3,1.9-3.5,2.4c-0.8-0.3-1.5-1.3-1.7-2.3C355.8,40,357.3,38.4,358.3,36.4z"/>
<path class="st0" d="M369.7,44.6c-1.6-1-2.4-2.2-2.4-4c0-2.6,2.4-4.6,5.8-4.6c3.5,0,5.7,1.9,5.7,4.5c0,1.6-1.1,2.9-2.4,3.6
	c1.8,1,2.9,2.4,2.9,4.6c-0.1,3-2.9,4.9-6.4,4.9c-3.7,0-6-1.8-6-4.7C366.9,47.1,368.1,45.5,369.7,44.6z M372.3,45.9
	c-1,0.9-1.4,1.9-1.4,2.8c0,1.2,0.8,2.1,2.2,2.1c1.3,0,2.1-0.9,2.1-2.1c0-1.1-0.8-2-2.2-2.6L372.3,45.9z M373.4,42.8l0.3,0.1
	c0.8-0.6,1.2-1.3,1.2-2.2c0-1-0.7-1.8-1.9-1.8c-1.1,0-1.8,0.8-1.8,1.7C371.2,41.6,372,42.3,373.4,42.8z"/>
<path class="st1" d="M29.6,13.9L40.1,4c0,0,5.6-5.6,10.5-0.7s4.9,4.2,4.9,4.2L12.8,51L0.8,56.6l4.2-10.5L44.3,6.8l3.5,3.5"/>
<path class="st2" d="M115.5,24.7c-8.5,0.8-14,5.8-15.7,14.2h14.4l5.8,5.8v14.4l0,0c8.4-1.7,14.4-9,14.4-17.6v-2.4
	c0,0,23.6-10.9,20.2-34.7c-32.2,1.7-38.6,29.5-38.6,29.5"/>
<path class="st3" d="M58.9,42.3l-4.4,4.8c0,0-7.9,2-3.4,6.4s6.4-3.4,6.4-3.4l7.9-7.9l6.9,6.9c0,0,1.5-4.4-3-7.9
	c7.9-6.9,25.9-22.7,25.9-22.7l4.6-13.8L86.5,9.1c0,0-19.2,22.2-23.2,26.1c-3.4-4.4-7.9-3-7.9-3l6.9,6.9"/>
</svg>
